<svg width="48" height="48" viewBox="0 0 48 48" fill="none" xmlns="http://www.w3.org/2000/svg">
<g id="&#233;&#128;&#143;&#230;&#152;&#142;&#232;&#137;&#178;">
<g id="Transparent base">
<g clip-path="url(#clip0_18_2148)">
<g id="Group 427320003">
<g id="Group 427319998">
<rect id="Rectangle 2051" x="3.99841" y="4.00049" width="6.93333" height="6.93333" fill="#CECED2"/>
<rect id="Rectangle 2053" x="17.8672" y="4.00049" width="6.93333" height="6.93333" fill="#CECED2"/>
<rect id="Rectangle 2055" x="31.7296" y="4.00049" width="6.93333" height="6.93333" fill="#CECED2"/>
</g>
<g id="Group 427320000">
<rect id="Rectangle 2052" x="10.9297" y="24.8008" width="6.93333" height="6.93333" fill="#CECED2"/>
<rect id="Rectangle 2054" x="24.7985" y="24.8008" width="6.93333" height="6.93333" fill="#CECED2"/>
<rect id="Rectangle 2056" x="38.6671" y="24.8008" width="6.93333" height="6.93333" fill="#CECED2"/>
</g>
<g id="Group 427319997">
<rect id="Rectangle 2058" x="10.9297" y="10.9336" width="6.93333" height="6.93333" fill="#CECED2"/>
<rect id="Rectangle 2060" x="24.7985" y="10.9336" width="6.93333" height="6.93333" fill="#CECED2"/>
<rect id="Rectangle 2062" x="38.6671" y="10.9336" width="6.93333" height="6.93333" fill="#CECED2"/>
</g>
<g id="Group 427320001">
<rect id="Rectangle 2057" x="3.99841" y="31.7336" width="6.93333" height="6.93333" fill="#CECED2"/>
<rect id="Rectangle 2059" x="17.8672" y="31.7339" width="6.93333" height="6.93333" fill="#CECED2"/>
<rect id="Rectangle 2061" x="31.7296" y="31.7339" width="6.93333" height="6.93333" fill="#CECED2"/>
</g>
<g id="Group 427319999">
<rect id="Rectangle 2057_2" x="3.99841" y="17.8674" width="6.93333" height="6.93333" fill="#CECED2"/>
<rect id="Rectangle 2059_2" x="17.8672" y="17.8677" width="6.93333" height="6.93333" fill="#CECED2"/>
<rect id="Rectangle 2061_2" x="31.7296" y="17.8677" width="6.93333" height="6.93333" fill="#CECED2"/>
</g>
<g id="Group 427320002">
<rect id="Rectangle 2058_2" x="10.9297" y="38.668" width="6.93333" height="6.93333" fill="#CECED2"/>
<rect id="Rectangle 2060_2" x="24.7985" y="38.668" width="6.93333" height="6.93333" fill="#CECED2"/>
<rect id="Rectangle 2062_2" x="38.6671" y="38.668" width="6.93333" height="6.93333" fill="#CECED2"/>
</g>
</g>
</g>
</g>
</g>
<defs>
<clipPath id="clip0_18_2148">
<rect x="5.59998" y="5.6001" width="36.8" height="36.8" rx="18.4" fill="white"/>
</clipPath>
</defs>
</svg>
