<svg width="98" height="57" viewBox="0 0 98 57" fill="none" xmlns="http://www.w3.org/2000/svg">
<g id="up">
<g id="Group 427320058">
<g id="Frame 1312316706">
<g id="Mask group">
<mask id="mask0_621_17661" style="mask-type:alpha" maskUnits="userSpaceOnUse" x="0" y="-12" width="98" height="69">
<path id="&#232;&#183;&#175;&#229;&#190;&#132;" fill-rule="evenodd" clip-rule="evenodd" d="M48.7465 56.9043C67.8438 56.9043 85.1549 49.2568 97.7845 36.8571L49.2465 -11.6815L0.214844 37.3492C12.7988 49.4588 29.9032 56.9043 48.7465 56.9043Z" fill="#E7E7E7"/>
</mask>
<g mask="url(#mask0_621_17661)">
<g id="&#229;&#189;&#162;&#231;&#138;&#182;&#231;&#187;&#147;&#229;&#144;&#136;" opacity="0.337891" filter="url(#filter0_f_621_17661)">
<path fill-rule="evenodd" clip-rule="evenodd" d="M83.4005 17.1423C82.0039 23.8842 78.6161 30.2707 73.258 35.3553C59.1996 48.6963 36.901 48.023 23.4528 33.8516C17.9626 28.066 14.7962 20.9252 13.9278 13.5921C6.93572 27.476 8.91194 44.7397 20.1317 56.5628C34.4611 71.6628 58.4417 72.1705 73.6938 57.6968C85.0524 46.9179 88.3669 30.87 83.4005 17.1423Z" fill="url(#paint0_linear_621_17661)" fill-opacity="0.6"/>
</g>
</g>
</g>
<g id="Subtract" filter="url(#filter1_ii_621_17661)">
<path d="M48.7461 56.9043C67.8432 56.9043 85.1547 49.2569 97.7842 36.8574L65.2529 4.32617C60.9513 8.403 55.1415 10.9043 48.7471 10.9043C42.6064 10.9043 37.0053 8.5972 32.7607 4.80371L0.214844 37.3496C12.7987 49.459 29.903 56.9042 48.7461 56.9043Z" fill="#0075FF" fill-opacity="0.02"/>
</g>
</g>
<g id="Group 427320063">
<path id="&#232;&#183;&#175;&#229;&#190;&#132;&#229;&#164;&#135;&#228;&#187;&#189;" fill-rule="evenodd" clip-rule="evenodd" d="M46.8895 41.1025C46.3203 41.1025 46.0226 41.7792 46.4073 42.1988L48.5182 44.5017C48.7775 44.7845 49.2234 44.7845 49.4827 44.5017L51.5937 42.1988C51.9783 41.7792 51.6807 41.1025 51.1114 41.1025H46.8895Z" fill="#0075FF"/>
<path id="Y" d="M48.5725 34.8843L46.1225 38.8443H47.1625L49.0325 35.7043H49.0925L50.9525 38.8443H51.9425L49.4725 34.8943V31.9043H48.5725V34.8843Z" fill="#0075FF"/>
</g>
</g>
<path id="&#232;&#183;&#175;&#229;&#190;&#132;&#229;&#164;&#135;&#228;&#187;&#189;_2" fill-rule="evenodd" clip-rule="evenodd" d="M46.8895 41.1016C46.3203 41.1016 46.0226 41.7782 46.4073 42.1978L48.5182 44.5007C48.7775 44.7836 49.2234 44.7836 49.4827 44.5007L51.5937 42.1978C51.9783 41.7782 51.6807 41.1016 51.1114 41.1016H46.8895Z" fill="#0075FF"/>
</g>
<defs>
<filter id="filter0_f_621_17661" x="-3.73594" y="0.000388145" width="102.968" height="81.8195" filterUnits="userSpaceOnUse" color-interpolation-filters="sRGB">
<feFlood flood-opacity="0" result="BackgroundImageFix"/>
<feBlend mode="normal" in="SourceGraphic" in2="BackgroundImageFix" result="shape"/>
<feGaussianBlur stdDeviation="6.7957" result="effect1_foregroundBlur_621_17661"/>
</filter>
<filter id="filter1_ii_621_17661" x="0.214844" y="1.32617" width="97.5693" height="59.5781" filterUnits="userSpaceOnUse" color-interpolation-filters="sRGB">
<feFlood flood-opacity="0" result="BackgroundImageFix"/>
<feBlend mode="normal" in="SourceGraphic" in2="BackgroundImageFix" result="shape"/>
<feColorMatrix in="SourceAlpha" type="matrix" values="0 0 0 0 0 0 0 0 0 0 0 0 0 0 0 0 0 0 127 0" result="hardAlpha"/>
<feOffset dy="4"/>
<feGaussianBlur stdDeviation="2.5"/>
<feComposite in2="hardAlpha" operator="arithmetic" k2="-1" k3="1"/>
<feColorMatrix type="matrix" values="0 0 0 0 0.137255 0 0 0 0 0.137255 0 0 0 0 0.137255 0 0 0 0.23768 0"/>
<feBlend mode="normal" in2="shape" result="effect1_innerShadow_621_17661"/>
<feColorMatrix in="SourceAlpha" type="matrix" values="0 0 0 0 0 0 0 0 0 0 0 0 0 0 0 0 0 0 127 0" result="hardAlpha"/>
<feOffset dy="-3"/>
<feGaussianBlur stdDeviation="3.5"/>
<feComposite in2="hardAlpha" operator="arithmetic" k2="-1" k3="1"/>
<feColorMatrix type="matrix" values="0 0 0 0 0.137255 0 0 0 0 0.137255 0 0 0 0 0.137255 0 0 0 0.196078 0"/>
<feBlend mode="normal" in2="effect1_innerShadow_621_17661" result="effect2_innerShadow_621_17661"/>
</filter>
<linearGradient id="paint0_linear_621_17661" x1="17.4039" y1="63.6138" x2="17.4039" y2="19.8615" gradientUnits="userSpaceOnUse">
<stop stop-color="#0075FF" stop-opacity="0.928322"/>
<stop offset="0.676546" stop-color="#6CADFC" stop-opacity="0.556709"/>
<stop offset="1" stop-color="#8AB9FF" stop-opacity="0.41226"/>
</linearGradient>
</defs>
</svg>
