<svg width="14" height="14" viewBox="0 0 14 14" fill="none" xmlns="http://www.w3.org/2000/svg">
<g id="humidity">
<path id="Vector (Stroke)" d="M11.2289 3.71909C11.2289 3.14906 10.9344 2.60622 10.5948 2.17844C10.4593 2.00761 10.3212 1.86527 10.2078 1.75462C10.0944 1.86522 9.95693 2.00784 9.82153 2.17844C9.48203 2.60622 9.1875 3.14906 9.1875 3.71909C9.18765 4.34337 9.66478 4.81284 10.2086 4.81284C10.7523 4.81268 11.2287 4.34327 11.2289 3.71909ZM12.1039 3.71909C12.1037 4.78583 11.2753 5.68768 10.2086 5.68784C9.1418 5.68784 8.31265 4.78592 8.3125 3.71909C8.3125 2.86007 8.74661 2.12596 9.13623 1.63499C9.33512 1.38438 9.53374 1.18314 9.68225 1.04453C9.75659 0.975157 9.81925 0.920846 9.86426 0.883033C9.88678 0.864115 9.90501 0.849101 9.91809 0.838599C9.92457 0.8334 9.92957 0.82885 9.93347 0.825782C9.93536 0.824295 9.93735 0.823335 9.9386 0.822364L9.94031 0.820655H9.94116V0.819801C10.0984 0.698699 10.3179 0.698778 10.4752 0.819801V0.820655H10.4761L10.4778 0.822364C10.479 0.823341 10.481 0.824263 10.4829 0.825782C10.4868 0.82884 10.4918 0.833391 10.4983 0.838599C10.5114 0.849099 10.5296 0.8641 10.5521 0.883033C10.5972 0.920889 10.6605 0.974983 10.735 1.04453C10.8835 1.18314 11.0813 1.38442 11.2802 1.63499C11.6698 2.12596 12.1039 2.85999 12.1039 3.71909Z" fill="#0075FF"/>
<g id="Group 427319739">
<path id="Vector (Stroke)_2" d="M5.97888 2.91699C5.97888 2.19212 5.39125 1.60449 4.66638 1.60449C3.94164 1.60465 3.35388 2.19221 3.35388 2.91699V7.58337C3.35388 7.72085 3.28941 7.85021 3.17957 7.93286C2.57642 8.3859 2.1875 9.10619 2.1875 9.91699C2.1875 11.2861 3.29732 12.3957 4.66638 12.3959C6.03557 12.3959 7.14612 11.2862 7.14612 9.91699C7.14612 9.10619 6.7572 8.3859 6.15405 7.93286C6.0441 7.85022 5.97888 7.72093 5.97888 7.58337V2.91699ZM6.85388 7.37488C7.5675 7.98943 8.02112 8.90013 8.02112 9.91699C8.02112 11.7694 6.51882 13.2709 4.66638 13.2709C2.81407 13.2707 1.3125 11.7693 1.3125 9.91699C1.3125 8.90029 1.76545 7.98943 2.47888 7.37488V2.91699C2.47888 1.70896 3.45839 0.729646 4.66638 0.729492C5.8745 0.729492 6.85388 1.70887 6.85388 2.91699V7.37488Z" fill="#0075FF"/>
<path id="Vector (Stroke)_3" d="M4.22949 8.74988V4.9585C4.22949 4.71687 4.42537 4.521 4.66699 4.521C4.90862 4.521 5.10449 4.71687 5.10449 4.9585V8.74988C5.10449 8.9915 4.90862 9.18738 4.66699 9.18738C4.42537 9.18738 4.22949 8.9915 4.22949 8.74988Z" fill="#0075FF"/>
<path id="Vector (Stroke)_4" d="M5.39612 9.91638C5.39596 9.51382 5.06898 9.1875 4.66638 9.1875C4.26391 9.18765 3.93765 9.51391 3.9375 9.91638C3.9375 10.319 4.26382 10.646 4.66638 10.6461C5.06908 10.6461 5.39612 10.3191 5.39612 9.91638ZM6.27112 9.91638C6.27112 10.8023 5.55233 11.5211 4.66638 11.5211C3.78057 11.521 3.0625 10.8022 3.0625 9.91638C3.06265 9.03066 3.78066 8.31265 4.66638 8.3125C5.55223 8.3125 6.27096 9.03057 6.27112 9.91638Z" fill="#0075FF"/>
</g>
</g>
</svg>
