<svg width="20" height="20" viewBox="0 0 20 20" fill="none" xmlns="http://www.w3.org/2000/svg">
<g id="icon-&#230;&#137;&#147;&#229;&#141;&#176;&#229;&#164;&#180;&#229;&#164;&#150;&#229;&#163;&#179;&#232;&#132;&#177;&#232;&#144;&#189;&#230;&#163;&#128;&#230;&#181;&#139;">
<g id="Group 674">
<path id="&#232;&#183;&#175;&#229;&#190;&#132; 1062" d="M10.5515 6.00244H7.15529C7.03919 6.00244 6.92422 6.02531 6.81696 6.06974C6.70971 6.11417 6.61225 6.17935 6.53016 6.26144C6.44807 6.34353 6.38293 6.44106 6.3385 6.54832C6.29407 6.65557 6.27124 6.77051 6.27124 6.8866V10.6314C6.27127 10.7221 6.29104 10.8118 6.32921 10.894C6.36738 10.9763 6.42301 11.0493 6.49224 11.1079L8.85399 13.1105L11.2151 11.1079C11.2844 11.0493 11.34 10.9763 11.3782 10.894C11.4163 10.8118 11.4361 10.7221 11.4361 10.6314V6.8866C11.436 6.65208 11.3427 6.42721 11.1768 6.26144C11.0109 6.09567 10.786 6.00244 10.5515 6.00244Z" stroke="#B4B4B4" stroke-width="1.2" stroke-linejoin="round"/>
</g>
<g id="Group 427320026">
<path id="&#232;&#183;&#175;&#229;&#190;&#132; 988" d="M14.9253 15.276C14.8857 15.3986 14.8103 15.5064 14.7087 15.5855C14.6072 15.6646 14.4841 15.7113 14.3556 15.7196C14.2272 15.7279 14.0991 15.6974 13.9881 15.632C13.8772 15.5667 13.7885 15.4695 13.7335 15.3531L13.1356 14.1458C13.0979 14.0696 13.0758 13.9869 13.0702 13.9022C13.0645 13.8174 13.0754 13.7323 13.1026 13.6519C13.1298 13.5714 13.1727 13.4971 13.2287 13.4332C13.2846 13.3693 13.3525 13.317 13.4286 13.2793C13.5047 13.2417 13.5876 13.2194 13.6723 13.2138C13.7571 13.2081 13.842 13.2192 13.9225 13.2464C14.0029 13.2736 14.0773 13.3164 14.1412 13.3723C14.2051 13.4282 14.2574 13.4961 14.295 13.5723L14.8991 14.7817C14.936 14.8583 14.9572 14.9413 14.9617 15.0262C14.9662 15.1111 14.9538 15.196 14.9253 15.276Z" fill="#B4B4B4"/>
<path id="&#232;&#183;&#175;&#229;&#190;&#132; 989" d="M16.7718 13.1437C16.7593 13.1804 16.7433 13.2158 16.7242 13.2495C16.6833 13.3239 16.6281 13.3894 16.5617 13.4423C16.4953 13.4952 16.4192 13.5345 16.3376 13.5578C16.256 13.581 16.1705 13.5879 16.0863 13.5779C16.002 13.568 15.9204 13.5414 15.8465 13.4998L14.7566 12.8933C14.6824 12.8519 14.6171 12.7963 14.5643 12.7296C14.5116 12.663 14.4726 12.5866 14.4494 12.5048C14.4262 12.4231 14.4192 12.3375 14.429 12.2531C14.4389 12.1687 14.4652 12.087 14.5066 12.0128C14.548 11.9386 14.6037 11.8732 14.6703 11.8205C14.737 11.7678 14.8133 11.7287 14.8951 11.7055C14.9768 11.6823 15.0623 11.6754 15.1467 11.6853C15.2312 11.6951 15.3128 11.7215 15.387 11.7629L16.4771 12.3695C16.6088 12.4439 16.7103 12.562 16.7641 12.7034C16.8179 12.8447 16.8206 13.0005 16.7718 13.1437Z" fill="#B4B4B4"/>
<path id="&#232;&#183;&#175;&#229;&#190;&#132; 990" d="M17.5265 10.4672C17.4869 10.5826 17.4158 10.6844 17.3209 10.761C17.226 10.8376 17.1112 10.8857 16.9901 10.9001L15.6286 11.0604C15.5443 11.0703 15.4589 11.0636 15.3771 11.0405C15.2954 11.0175 15.219 10.9785 15.1523 10.9259C15.0857 10.8734 15.03 10.8082 14.9885 10.7341C14.9471 10.66 14.9205 10.5784 14.9105 10.4941C14.9006 10.4098 14.9074 10.3244 14.9304 10.2427C14.9535 10.1609 14.9924 10.0846 15.045 10.0179C15.0976 9.95124 15.1627 9.89556 15.2368 9.85409C15.3108 9.81261 15.3924 9.78614 15.4767 9.77618L16.8388 9.61495C16.9232 9.60445 17.0089 9.61084 17.0909 9.63376C17.1728 9.65667 17.2494 9.69566 17.3162 9.74843C17.383 9.80121 17.4387 9.86678 17.48 9.94124C17.5212 10.0157 17.5472 10.0976 17.5565 10.1822C17.5685 10.2783 17.5581 10.3757 17.5265 10.4672Z" fill="#B4B4B4"/>
</g>
<path id="Vector 465" d="M3.37769 7.92212H6.27132" stroke="#B4B4B4" stroke-width="1.2" stroke-linecap="round" stroke-linejoin="round"/>
<path id="Vector 466" d="M11.4363 7.92212H14.3299" stroke="#B4B4B4" stroke-width="1.2" stroke-linecap="round" stroke-linejoin="round"/>
</g>
</svg>
